<svg xmlns="http://www.w3.org/2000/svg" xmlns:xlink="http://www.w3.org/1999/xlink" width="452.18" height="384.32" viewBox="0 0 452.18 384.32">
  <defs>
    <style>
      .cls-1 {
        fill: none;
      }

      .cls-2 {
        isolation: isolate;
      }

      .cls-3 {
        fill: #b8ebf4;
      }

      .cls-31, .cls-4, .cls-9 {
        mix-blend-mode: overlay;
      }

      .cls-5 {
        fill: url(#Degradado_sin_nombre_4);
      }

      .cls-6 {
        opacity: 0.6;
      }

      .cls-7 {
        fill: #b2c8cc;
      }

      .cls-8 {
        fill: #ffbe60;
      }

      .cls-9 {
        fill: url(#Degradado_sin_nombre_4-2);
      }

      .cls-10 {
        fill: #ffe2bb;
      }

      .cls-11 {
        fill: #f29d2c;
      }

      .cls-12 {
        fill: #dfdfdf;
      }

      .cls-13 {
        fill: #e33b38;
      }

      .cls-14 {
        fill: #f25757;
      }

      .cls-15, .cls-31 {
        fill: #fff;
      }

      .cls-16 {
        fill: #f95d5d;
      }

      .cls-17 {
        clip-path: url(#clip-path);
      }

      .cls-18 {
        fill: #c7bd3a;
      }

      .cls-19 {
        fill: url(#Degradado_sin_nombre_4-3);
      }

      .cls-20 {
        fill: #ada028;
      }

      .cls-21 {
        clip-path: url(#clip-path-2);
      }

      .cls-22 {
        fill: #aac037;
      }

      .cls-23 {
        fill: url(#Degradado_sin_nombre_4-4);
      }

      .cls-24 {
        fill: #8f9e1e;
      }

      .cls-25, .cls-39, .cls-43, .cls-44 {
        fill: #054651;
      }

      .cls-26 {
        fill: #d87c0e;
      }

      .cls-27 {
        fill: #0e5768;
      }

      .cls-28 {
        clip-path: url(#clip-path-3);
      }

      .cls-29 {
        fill: #329bad;
      }

      .cls-30 {
        clip-path: url(#clip-path-4);
      }

      .cls-32 {
        clip-path: url(#clip-path-5);
      }

      .cls-33 {
        fill: url(#Degradado_sin_nombre_4-5);
      }

      .cls-34 {
        clip-path: url(#clip-path-6);
      }

      .cls-35 {
        fill: url(#Degradado_sin_nombre_4-6);
      }

      .cls-36 {
        fill: #282f39;
      }

      .cls-37 {
        fill: #4d555e;
      }

      .cls-38 {
        fill: #f1f9fb;
      }

      .cls-39 {
        font-size: 11.75px;
      }

      .cls-39, .cls-43, .cls-44 {
        font-family: BebasNeueBold;
      }

      .cls-40 {
        letter-spacing: -0.01em;
      }

      .cls-41 {
        letter-spacing: -0.01em;
      }

      .cls-42 {
        letter-spacing: 0em;
      }

      .cls-43 {
        font-size: 23.21px;
        letter-spacing: 0.02em;
      }

      .cls-44 {
        font-size: 28.21px;
        letter-spacing: 0.2em;
      }
    </style>
    <linearGradient id="Degradado_sin_nombre_4" data-name="Degradado sin nombre 4" x1="206.68" y1="-26.14" x2="206.68" y2="316.59" gradientUnits="userSpaceOnUse">
      <stop offset="0" stop-color="#fff"/>
      <stop offset="1" stop-color="#231f20"/>
    </linearGradient>
    <linearGradient id="Degradado_sin_nombre_4-2" x1="214.67" y1="126.72" x2="214.67" y2="315.03" xlink:href="#Degradado_sin_nombre_4"/>
    <clipPath id="clip-path">
      <path class="cls-1" d="M52.12,325.19c2.53-5.51,5.19-11.13,5.9-17.15a20.19,20.19,0,0,0-4.35-14.9c-3.56-4.37-8.85-7.09-12.29-11.55a19.21,19.21,0,0,1-2-19.71c2.72-5.58,9.82-9.72,15.21-6.65,5,2.86,5.62,9.79,8.83,14.59,4.15,6.2,12.3,8.36,17.5,13.71a19.42,19.42,0,0,1,5,17.15c-.83,4.06-3,8-2.27,12.11,1.39,7.74,12,10.78,14.08,18.36,1.33,4.83-1.48,10-5.52,13s-9.07,4.16-14,5.18C70.22,351,61,352.16,54.65,347,54.65,347,44.79,341.17,52.12,325.19Z"/>
    </clipPath>
    <linearGradient id="Degradado_sin_nombre_4-3" x1="65.59" y1="258.76" x2="70.77" y2="360.2" xlink:href="#Degradado_sin_nombre_4"/>
    <clipPath id="clip-path-2">
      <path class="cls-1" d="M39.93,333c-3-1.58-4.82-4.8-6.09-8s-2.09-6.5-3.62-9.54a22.31,22.31,0,0,0-8-8.8C18,304,13,302.83,8.58,300.44s-8.42-6.73-8-11.72c.45-5.31,6-9.07,11.3-9.36s10.42,2,15.17,4.46A201.88,201.88,0,0,1,46.18,295a36.36,36.36,0,0,1,7.87,6.47c7,8.18,6.21,21,.52,30.11C54.57,331.58,46.77,336.56,39.93,333Z"/>
    </clipPath>
    <linearGradient id="Degradado_sin_nombre_4-4" x1="2.62" y1="281.77" x2="72.76" y2="337.52" xlink:href="#Degradado_sin_nombre_4"/>
    <clipPath id="clip-path-3">
      <rect class="cls-1" x="118.82" y="198.11" width="59.68" height="139.86"/>
    </clipPath>
    <clipPath id="clip-path-4">
      <rect class="cls-1" x="216.38" y="199.05" width="130.76" height="87.74"/>
    </clipPath>
    <clipPath id="clip-path-5">
      <path class="cls-1" d="M369.88,325.19c-2.53-5.51-5.2-11.13-5.9-17.15a20.23,20.23,0,0,1,4.34-14.9c3.56-4.37,8.85-7.09,12.3-11.55a19.21,19.21,0,0,0,2-19.71c-2.72-5.58-9.82-9.72-15.22-6.65-5,2.86-5.61,9.79-8.82,14.59-4.15,6.2-12.3,8.36-17.5,13.71a19.42,19.42,0,0,0-5,17.15c.83,4.06,3,8,2.27,12.11-1.39,7.74-12,10.78-14.09,18.36-1.32,4.83,1.49,10,5.53,13s9.07,4.16,14,5.18c8,1.68,17.26,2.82,23.58-2.38C367.34,347,377.21,341.17,369.88,325.19Z"/>
    </clipPath>
    <linearGradient id="Degradado_sin_nombre_4-5" x1="369.03" y1="251.56" x2="337.95" y2="376.77" xlink:href="#Degradado_sin_nombre_4"/>
    <clipPath id="clip-path-6">
      <path class="cls-1" d="M382.07,333c3-1.58,4.82-4.8,6.09-8s2.08-6.5,3.61-9.54a22.46,22.46,0,0,1,8-8.8c4.24-2.67,9.25-3.84,13.65-6.23s8.41-6.73,8-11.72c-.45-5.31-6-9.07-11.29-9.36s-10.42,2-15.17,4.46A201.88,201.88,0,0,0,375.82,295a36.42,36.42,0,0,0-7.88,6.47c-7,8.18-6.2,21-.51,30.11C367.43,331.58,375.23,336.56,382.07,333Z"/>
    </clipPath>
    <linearGradient id="Degradado_sin_nombre_4-6" x1="423.96" y1="243.95" x2="357.24" y2="363.22" xlink:href="#Degradado_sin_nombre_4"/>
  </defs>
  <title>Asset 43</title>
  <g class="cls-2">
    <g id="Layer_2" data-name="Layer 2">
      <g id="OBJECTS">
        <g>
          <path class="cls-3" d="M74.35,343.9c-27.81-24-102-87.27-63.51-135.93,8.79-11.1,26.85-10.72,36.39-21.18,12-13.15,5.94-33.78,1.35-51-5.59-21-7.77-43.73-.09-64S75.7,34.65,97.38,35.42c12.75.46,24.48,6.64,36.12,11.9,18.9,8.56,39.37,15.09,60.08,13.68,26.95-1.83,51.42-16.82,78.18-20.6,34.4-4.86,69.89,10,94.31,34.71s38.52,58.29,44.28,92.56,3.52,70.47-9.19,102.94-36.23,61.1-67,77.47Z"/>
          <g class="cls-4">
            <path class="cls-5" d="M74.35,343.9c-27.81-24-102-87.27-63.51-135.93,8.79-11.1,26.85-10.72,36.39-21.18,12-13.15,5.94-33.78,1.35-51-5.59-21-7.77-43.73-.09-64S75.7,34.65,97.38,35.42c12.75.46,24.48,6.64,36.12,11.9,18.9,8.56,39.37,15.09,60.08,13.68,26.95-1.83,51.42-16.82,78.18-20.6,34.4-4.86,69.89,10,94.31,34.71s38.52,58.29,44.28,92.56,3.52,70.47-9.19,102.94-36.23,61.1-67,77.47Z"/>
          </g>
          <g class="cls-6">
            <path class="cls-7" d="M47,349.57c-12.58-.19-41.77,3.07-40.56,8.15,1.15,4.79,21.64,6.92,29.52,7.34,34.67,1.85,63.82,3.43,98,4.35,4.17.11,5.84,4,2.55,5.88h0c-2.84,1.65-5.45,4.61-2.14,5.71,16,5.33,89.7,3.06,127.09,1.33,45.28-2.1,151.45-7.42,159.47-21.59,2.67-4.72-4.74-8.23-11-9.56a185.62,185.62,0,0,0-45.58-3.95Z"/>
          </g>
          <rect class="cls-8" x="82.2" y="94.86" width="264.94" height="252.25"/>
          <rect class="cls-9" x="82.2" y="94.86" width="264.94" height="252.25"/>
          <rect class="cls-10" x="82.2" y="328.83" width="264.94" height="18.28"/>
          <rect class="cls-11" x="82.2" y="94.86" width="264.94" height="77.91"/>
          <g>
            <g>
              <g>
                <path class="cls-12" d="M65.85,137.81c-.8,13.38,11.11,24.26,24.81,24.26s24.8-10.86,24.8-24.26-11.1-24.25-24.8-24.25S66.66,124.31,65.85,137.81Z"/>
                <ellipse class="cls-13" cx="140.27" cy="137.81" rx="24.81" ry="24.26"/>
                <ellipse class="cls-12" cx="189.88" cy="137.81" rx="24.81" ry="24.26"/>
                <ellipse class="cls-13" cx="239.49" cy="137.81" rx="24.81" ry="24.26"/>
                <ellipse class="cls-12" cx="289.11" cy="137.81" rx="24.81" ry="24.26"/>
                <ellipse class="cls-13" cx="338.72" cy="137.81" rx="24.81" ry="24.26"/>
              </g>
              <polygon class="cls-14" points="363.52 137.81 65.85 137.81 73.06 93.49 358.32 93.49 363.52 137.81"/>
              <polygon class="cls-15" points="65.85 137.81 73.06 93.49 122.24 93.49 115.46 137.81 65.85 137.81"/>
              <polygon class="cls-15" points="214.69 137.81 214.69 93.49 169.69 93.49 165.07 137.81 214.69 137.81"/>
              <polygon class="cls-15" points="264.3 137.81 264.3 93.49 309.3 93.49 313.91 137.81 264.3 137.81"/>
            </g>
            <rect class="cls-13" x="72.51" y="81.61" width="286.06" height="14.47"/>
            <rect class="cls-16" x="72.51" y="81.61" width="286.06" height="3.69"/>
            <rect class="cls-15" x="72.51" y="81.61" width="286.06" height="0.92"/>
          </g>
          <rect class="cls-15" x="202.67" y="191.74" width="144.47" height="110.83"/>
          <rect class="cls-15" x="105" y="191.74" width="80.18" height="149.43"/>
          <g class="cls-17">
            <path class="cls-18" d="M52.12,325.19c2.53-5.51,5.19-11.13,5.9-17.15a20.19,20.19,0,0,0-4.35-14.9c-3.56-4.37-8.85-7.09-12.29-11.55a19.21,19.21,0,0,1-2-19.71c2.72-5.58,9.82-9.72,15.21-6.65,5,2.86,5.62,9.79,8.83,14.59,4.15,6.2,12.3,8.36,17.5,13.71a19.42,19.42,0,0,1,5,17.15c-.83,4.06-3,8-2.27,12.11,1.39,7.74,12,10.78,14.08,18.36,1.33,4.83-1.48,10-5.52,13s-9.07,4.16-14,5.18C70.22,351,61,352.16,54.65,347,54.65,347,44.79,341.17,52.12,325.19Z"/>
            <g class="cls-4">
              <path class="cls-19" d="M52.12,325.19c2.53-5.51,5.19-11.13,5.9-17.15a20.19,20.19,0,0,0-4.35-14.9c-3.56-4.37-8.85-7.09-12.29-11.55a19.21,19.21,0,0,1-2-19.71c2.72-5.58,9.82-9.72,15.21-6.65,5,2.86,5.62,9.79,8.83,14.59,4.15,6.2,12.3,8.36,17.5,13.71a19.42,19.42,0,0,1,5,17.15c-.83,4.06-3,8-2.27,12.11,1.39,7.74,12,10.78,14.08,18.36,1.33,4.83-1.48,10-5.52,13s-9.07,4.16-14,5.18C70.22,351,61,352.16,54.65,347,54.65,347,44.79,341.17,52.12,325.19Z"/>
            </g>
            <path class="cls-20" d="M46.16,252.82c.68,14,12.41,23.42,20.17,33.91,4.25,5.75,7.26,12,7.42,19.27.08,3.81-.38,7.61-.54,11.42a61.78,61.78,0,0,0,.56,11.45,65.31,65.31,0,0,0,3,12.23c1.28,3.68,2.81,8.34-.09,11.68-.59.68.4,1.68,1,1a9.73,9.73,0,0,0,1.83-8.3c-.67-3.75-2.35-7.28-3.26-11A60.42,60.42,0,0,1,74.6,322.6c-.16-4,.21-7.9.44-11.85a37.85,37.85,0,0,0-.68-11.24,32.85,32.85,0,0,0-4-9.24c-3.53-5.86-8.31-10.8-12.64-16.06-5.05-6.14-9.8-13.19-10.2-21.39,0-.9-1.45-.91-1.41,0Z"/>
            <path class="cls-20" d="M34.14,268.39A59.47,59.47,0,0,0,62.38,282c.89.16,1.27-1.2.37-1.36A58.26,58.26,0,0,1,35.14,267.4c-.68-.6-1.68.4-1,1Z"/>
            <path class="cls-20" d="M65.47,283.71a28.46,28.46,0,0,0-2.16-19.41c-.41-.81-1.62-.1-1.22.71a27,27,0,0,1,2,18.33.71.71,0,0,0,1.36.37Z"/>
            <path class="cls-20" d="M54.81,311.49c1.17,4.74,4.12,8.69,7.52,12.09,3.94,3.94,8.37,7.42,12.6,11,.69.58,1.69-.41,1-1-4.05-3.46-8.26-6.8-12.08-10.52-3.46-3.36-6.51-7.23-7.68-12-.22-.88-1.58-.5-1.36.38Z"/>
            <path class="cls-20" d="M77.26,338c-.32-11.44,11.12-20,8.87-31.79-.17-.89-1.53-.52-1.36.37,1.13,5.88-1.72,11.47-4.32,16.55-2.38,4.65-4.75,9.51-4.6,14.87a.71.71,0,0,0,1.41,0Z"/>
          </g>
          <g>
            <g class="cls-21">
              <path class="cls-22" d="M39.93,333c-3-1.58-4.82-4.8-6.09-8s-2.09-6.5-3.62-9.54a22.31,22.31,0,0,0-8-8.8C18,304,13,302.83,8.58,300.44s-8.42-6.73-8-11.72c.45-5.31,6-9.07,11.3-9.36s10.42,2,15.17,4.46A201.88,201.88,0,0,1,46.18,295a36.36,36.36,0,0,1,7.87,6.47c7,8.18,6.21,21,.52,30.11C54.57,331.58,46.77,336.56,39.93,333Z"/>
              <g class="cls-4">
                <path class="cls-23" d="M39.93,333c-3-1.58-4.82-4.8-6.09-8s-2.09-6.5-3.62-9.54a22.31,22.31,0,0,0-8-8.8C18,304,13,302.83,8.58,300.44s-8.42-6.73-8-11.72c.45-5.31,6-9.07,11.3-9.36s10.42,2,15.17,4.46A201.88,201.88,0,0,1,46.18,295a36.36,36.36,0,0,1,7.87,6.47c7,8.18,6.21,21,.52,30.11C54.57,331.58,46.77,336.56,39.93,333Z"/>
              </g>
              <path class="cls-24" d="M.83,284.67C13.94,288,26.33,294.1,36,303.76c7.74,7.78,13.26,17.39,17.3,27.53,2.09,5.24,3.81,10.61,5.43,16a.71.71,0,0,0,1.36-.37c-3-10-6.42-20-11.66-29.05A70.19,70.19,0,0,0,24,292.61a84.43,84.43,0,0,0-22.78-9.3.71.71,0,0,0-.37,1.36Z"/>
              <path class="cls-24" d="M35.78,282.36c4,7.15,8.87,13.79,12.28,21.25,3.68,8.07,4.82,16.85,5,25.64a.35.35,0,0,0,.7,0c-.16-8.61-1.23-17.23-4.72-25.19-3.4-7.79-8.51-14.66-12.63-22.05-.22-.4-.83,0-.61.35Z"/>
              <path class="cls-24" d="M17.45,310c7.19,1.67,14.53,3.37,20.94,7.19a36.62,36.62,0,0,1,7.85,6.52,33.82,33.82,0,0,0,7,6.21.35.35,0,0,0,.36-.61c-2.9-1.74-5.1-4.27-7.4-6.69a35,35,0,0,0-7.81-6.26c-6.38-3.7-13.62-5.39-20.74-7-.44-.1-.63.58-.18.68Z"/>
            </g>
            <path class="cls-24" d="M44.24,313.87c6.83,10.2,10.94,21.75,14.45,33.42a.71.71,0,0,0,1.36-.37c-3.54-11.79-7.7-23.47-14.59-33.76-.5-.75-1.72,0-1.22.71Z"/>
          </g>
          <rect class="cls-25" x="111.17" y="198.11" width="67.33" height="143.06"/>
          <rect class="cls-25" x="209.53" y="199.05" width="137.62" height="97.33"/>
          <rect class="cls-26" x="202.67" y="302.56" width="144.47" height="8.9"/>
          <rect class="cls-27" x="216.38" y="199.05" width="130.76" height="87.74"/>
          <rect class="cls-27" x="118.82" y="198.11" width="59.68" height="139.86"/>
          <g class="cls-28">
            <rect class="cls-29" x="121.91" y="173.66" width="25.06" height="138.51" transform="translate(162.68 -33.28) rotate(34.8)"/>
            <rect class="cls-29" x="150.15" y="188.4" width="6.09" height="138.51" transform="translate(174.44 -41.35) rotate(34.8)"/>
          </g>
          <g class="cls-30">
            <rect class="cls-29" x="251.77" y="176.2" width="25.06" height="138.51" transform="translate(187.35 -106.94) rotate(34.8)"/>
            <rect class="cls-29" x="297.92" y="170.78" width="6.09" height="138.51" transform="translate(190.82 -128.83) rotate(34.8)"/>
          </g>
          <path class="cls-31" d="M72.51,96.08H358.57s-55.37,17-149,17.48S72.51,96.08,72.51,96.08Z"/>
          <g class="cls-32">
            <path class="cls-18" d="M369.88,325.19c-2.53-5.51-5.2-11.13-5.9-17.15a20.23,20.23,0,0,1,4.34-14.9c3.56-4.37,8.85-7.09,12.3-11.55a19.21,19.21,0,0,0,2-19.71c-2.72-5.58-9.82-9.72-15.22-6.65-5,2.86-5.61,9.79-8.82,14.59-4.15,6.2-12.3,8.36-17.5,13.71a19.42,19.42,0,0,0-5,17.15c.83,4.06,3,8,2.27,12.11-1.39,7.74-12,10.78-14.09,18.36-1.32,4.83,1.49,10,5.53,13s9.07,4.16,14,5.18c8,1.68,17.26,2.82,23.58-2.38C367.34,347,377.21,341.17,369.88,325.19Z"/>
            <g class="cls-4">
              <path class="cls-33" d="M369.88,325.19c-2.53-5.51-5.2-11.13-5.9-17.15a20.23,20.23,0,0,1,4.34-14.9c3.56-4.37,8.85-7.09,12.3-11.55a19.21,19.21,0,0,0,2-19.71c-2.72-5.58-9.82-9.72-15.22-6.65-5,2.86-5.61,9.79-8.82,14.59-4.15,6.2-12.3,8.36-17.5,13.71a19.42,19.42,0,0,0-5,17.15c.83,4.06,3,8,2.27,12.11-1.39,7.74-12,10.78-14.09,18.36-1.32,4.83,1.49,10,5.53,13s9.07,4.16,14,5.18c8,1.68,17.26,2.82,23.58-2.38C367.34,347,377.21,341.17,369.88,325.19Z"/>
            </g>
            <path class="cls-20" d="M374.42,252.82c-.69,14.54-13.83,24.06-21.4,35.21a38.32,38.32,0,0,0-4.57,8.77,30.57,30.57,0,0,0-1.61,10.86c.06,4,.56,7.91.6,11.88a60.11,60.11,0,0,1-1.08,12,58.87,58.87,0,0,1-1.59,6.38c-.62,2-1.43,4-2,6.05-.9,3.36-.9,7.08,1.49,9.83.6.69,1.59-.31,1-1-2.56-2.94-1.65-7.06-.54-10.4a81.84,81.84,0,0,0,3-10.73,61.48,61.48,0,0,0,1.08-11.4c0-3.81-.44-7.6-.57-11.4a31.28,31.28,0,0,1,1.39-11.3,37.25,37.25,0,0,1,4.57-8.81c3.86-5.69,8.76-10.57,12.95-16,4.49-5.81,8.28-12.41,8.64-19.91.05-.91-1.36-.9-1.41,0Z"/>
            <path class="cls-20" d="M386.86,267.4a58.25,58.25,0,0,1-27.62,13.19c-.89.16-.51,1.52.38,1.36a59.43,59.43,0,0,0,28.23-13.56c.69-.59-.31-1.59-1-1Z"/>
            <path class="cls-20" d="M357.89,283.34a27,27,0,0,1,2-18.33c.4-.81-.81-1.52-1.22-.71a28.46,28.46,0,0,0-2.16,19.41.71.71,0,0,0,1.36-.37Z"/>
            <path class="cls-20" d="M365.83,311.11c-1.17,4.76-4.23,8.63-7.68,12-3.82,3.72-8,7.06-12.08,10.52-.7.59.31,1.58,1,1,4.24-3.62,8.66-7.1,12.61-11,3.4-3.4,6.35-7.35,7.52-12.09.22-.88-1.14-1.26-1.36-.38Z"/>
            <path class="cls-20" d="M346.15,338c.15-5.36-2.22-10.22-4.6-14.87-2.6-5.08-5.45-10.67-4.33-16.55.17-.89-1.19-1.27-1.36-.37-2.24,11.75,9.2,20.35,8.88,31.79a.71.71,0,0,0,1.41,0Z"/>
          </g>
          <g>
            <g class="cls-34">
              <path class="cls-22" d="M382.07,333c3-1.58,4.82-4.8,6.09-8s2.08-6.5,3.61-9.54a22.46,22.46,0,0,1,8-8.8c4.24-2.67,9.25-3.84,13.65-6.23s8.41-6.73,8-11.72c-.45-5.31-6-9.07-11.29-9.36s-10.42,2-15.17,4.46A201.88,201.88,0,0,0,375.82,295a36.42,36.42,0,0,0-7.88,6.47c-7,8.18-6.2,21-.51,30.11C367.43,331.58,375.23,336.56,382.07,333Z"/>
              <g class="cls-4">
                <path class="cls-35" d="M382.07,333c3-1.58,4.82-4.8,6.09-8s2.08-6.5,3.61-9.54a22.46,22.46,0,0,1,8-8.8c4.24-2.67,9.25-3.84,13.65-6.23s8.41-6.73,8-11.72c-.45-5.31-6-9.07-11.29-9.36s-10.42,2-15.17,4.46A201.88,201.88,0,0,0,375.82,295a36.42,36.42,0,0,0-7.88,6.47c-7,8.18-6.2,21-.51,30.11C367.43,331.58,375.23,336.56,382.07,333Z"/>
              </g>
              <path class="cls-24" d="M420.8,283.31c-13.24,3.41-25.78,9.53-35.54,19.24-7.94,7.9-13.58,17.66-17.73,28-2.16,5.36-3.92,10.85-5.58,16.38a.71.71,0,0,0,1.36.37c2.94-9.8,6.27-19.55,11.37-28.47a69,69,0,0,1,23.9-24.9,83.23,83.23,0,0,1,22.59-9.25.71.71,0,0,0-.37-1.36Z"/>
              <path class="cls-24" d="M385.61,282c-4.13,7.39-9.23,14.26-12.64,22.05-3.48,8-4.56,16.58-4.71,25.19a.35.35,0,0,0,.7,0c.16-8.79,1.3-17.57,5-25.64,3.4-7.46,8.29-14.1,12.28-21.25.22-.39-.39-.75-.61-.35Z"/>
              <path class="cls-24" d="M404.36,309.33c-7.11,1.65-14.36,3.34-20.73,7a34.55,34.55,0,0,0-7.67,6.11c-2.35,2.46-4.59,5.07-7.54,6.84a.35.35,0,0,0,.35.61,33.58,33.58,0,0,0,7-6.21,36.37,36.37,0,0,1,7.85-6.52c6.41-3.82,13.75-5.52,20.94-7.19.44-.1.26-.78-.19-.68Z"/>
            </g>
            <path class="cls-24" d="M376.54,313.16c-6.89,10.29-11.05,22-14.59,33.76a.71.71,0,0,0,1.36.37c3.5-11.67,7.62-23.22,14.44-33.42.51-.75-.71-1.46-1.21-.71Z"/>
          </g>
          <rect class="cls-36" x="41.65" y="341.17" width="346.04" height="11.88"/>
          <rect class="cls-37" x="41.65" y="341.17" width="346.04" height="3.81"/>
          <path class="cls-38" d="M368.65,188.65c-2.67-1.33-5.43-2.74-7.33-5.05s-2.67-5.82-1-8.31c1.36-2.07,4-2.92,6.43-3.25a24.93,24.93,0,0,1,17.61,4.35A30.86,30.86,0,0,1,395.7,149c3.87-3,8.65-5.14,13.57-5s9.91,2.76,12.06,7.19c1.36,2.81,1.51,6,1.37,9.16a56.52,56.52,0,0,1-3.77,18c11.2-3,30.06-4.81,33,6.42,5.9,22.63-89.69,34.36-95.63,13.9C354.72,193.28,368.65,188.65,368.65,188.65Z"/>
          <path class="cls-38" d="M18.64,230a14.67,14.67,0,0,1-5-3.47c-1.3-1.59-1.84-4-.71-5.71a6.13,6.13,0,0,1,4.42-2.23,17.1,17.1,0,0,1,12.09,3,21.17,21.17,0,0,1,7.8-18.8,14.81,14.81,0,0,1,9.31-3.45,9.46,9.46,0,0,1,8.28,4.94,13.17,13.17,0,0,1,1,6.29,39.22,39.22,0,0,1-2.6,12.37c7.69-2.1,20.64-3.3,22.65,4.41,4.06,15.53-61.57,23.58-65.65,9.54C9.07,233.17,18.64,230,18.64,230Z"/>
          <path class="cls-3" d="M318.16,54A12.82,12.82,0,0,1,313.74,51a4.39,4.39,0,0,1-.62-5A5.35,5.35,0,0,1,317,44a15.07,15.07,0,0,1,10.62,2.62,18.59,18.59,0,0,1,6.84-16.51,13.08,13.08,0,0,1,8.19-3,8.32,8.32,0,0,1,7.26,4.34,11.48,11.48,0,0,1,.83,5.52,34.24,34.24,0,0,1-2.27,10.86c6.75-1.84,18.12-2.89,19.89,3.88,3.55,13.64-54.08,20.71-57.66,8.38C309.76,56.81,318.16,54,318.16,54Z"/>
          <path class="cls-3" d="M376.35,191.08a16.63,16.63,0,0,1-5.74-4c-1.48-1.81-2.09-4.55-.8-6.51,1.07-1.61,3.11-2.28,5-2.54a19.51,19.51,0,0,1,13.8,3.41A24.16,24.16,0,0,1,397.53,160a16.93,16.93,0,0,1,10.64-3.94c3.85.1,7.76,2.16,9.44,5.63a15,15,0,0,1,1.07,7.18A44.33,44.33,0,0,1,415.73,183c8.77-2.39,23.54-3.76,25.84,5,4.62,17.72-70.25,26.91-74.9,10.89C365.44,194.71,376.35,191.08,376.35,191.08Z"/>
          <path class="cls-3" d="M35,18.54a8.9,8.9,0,0,1-3-2.1A3,3,0,0,1,31.52,13a3.69,3.69,0,0,1,2.67-1.35,10.37,10.37,0,0,1,7.31,1.81A12.79,12.79,0,0,1,46.21,2.09,9,9,0,0,1,51.84,0a5.72,5.72,0,0,1,5,3,7.76,7.76,0,0,1,.57,3.8,23.61,23.61,0,0,1-1.56,7.47c4.64-1.26,12.47-2,13.69,2.67C72,26.31,32.32,31.18,29.86,22.69,29.21,20.46,35,18.54,35,18.54Z"/>
          <g>
            <path class="cls-15" d="M281.76,225.28a2.12,2.12,0,1,1-2.11-2.12A2.12,2.12,0,0,1,281.76,225.28Z"/>
            <g>
              <rect class="cls-15" x="246.2" y="232.95" width="65.58" height="35.95" rx="3.06"/>
              <g>
                <text class="cls-39" transform="translate(262.87 246.57)"><tspan class="cls-40">w</tspan><tspan x="8.53" y="0">e a</tspan><tspan class="cls-41" x="22.56" y="0">r</tspan><tspan class="cls-42" x="26.29" y="0">e</tspan></text>
                <text class="cls-43" transform="translate(250.74 264.99)">OPEN</text>
              </g>
            </g>
            <path class="cls-15" d="M294,236.2H264.08l15.58-11.52Zm-27.1-.94h24.42l-11.72-9.39Z"/>
          </g>
          <rect class="cls-11" x="306.63" y="176.61" width="32.09" height="11.25"/>
          <rect class="cls-11" x="87.82" y="176.97" width="32.09" height="11.25"/>
          <rect class="cls-11" x="277.53" y="178.94" width="16.3" height="7.31"/>
          <rect class="cls-26" x="192.08" y="316.49" width="16.3" height="7.31"/>
          <rect class="cls-26" x="238.04" y="316.49" width="16.3" height="7.31"/>
          <g>
            <g>
              <rect class="cls-15" x="159.2" y="41.57" width="115.7" height="35.62"/>
              <path class="cls-29" d="M276.41,78.69H157.7V40.07H276.41Zm-115.71-3H273.41V43.07H160.7Z"/>
            </g>
            <text class="cls-44" transform="translate(175.48 69.64)">SHOP</text>
          </g>
        </g>
      </g>
    </g>
  </g>
</svg>
