<svg xmlns="http://www.w3.org/2000/svg" width="634.64" height="381.63" viewBox="0 0 634.64 381.63">
  <defs>
    <style>
      .cls-1, .cls-4 {
        fill: none;
        stroke-miterlimit: 10;
      }

      .cls-1 {
        stroke: #ffac35;
        stroke-width: 3px;
      }

      .cls-2 {
        font-size: 272.87px;
        fill: #ff5fa2;
        font-family: BrushScriptMT, Brush Script MT;
      }

      .cls-3 {
        fill: #00f4dc;
      }

      .cls-4 {
        stroke: #ff5fa2;
        stroke-width: 2px;
      }

      .cls-5 {
        opacity: 0.72;
        font-size: 110.12px;
        fill: #000096;
        font-family: Roboto-Bold, Roboto;
        font-weight: 700;
      }

      .cls-6 {
        letter-spacing: -0.01em;
      }
    </style>
  </defs>
  <title>Asset 1</title>
  <g id="Layer_2" data-name="Layer 2">
    <g id="Layer_1-2" data-name="Layer 1">
      <path class="cls-1" d="M329.42,47.24S307.85,11,289.06,12.43c0,0,16.1,28.61,10.17,41.76-1.9,4.21,2.77,3.07,2.77,3.07Z"/>
      <path class="cls-1" d="M257.44,90S235.71,53.87,245.8,38c0,0,17.62,27.69,32,28.67,4.61.31,1.39,3.89,1.39,3.89Z"/>
      <text class="cls-2" transform="translate(172.33 222.52)">C<tspan class="cls-3" x="164.81" y="0">P</tspan></text>
      <g>
        <path class="cls-4" d="M469.53,139c-3.7,5.56-14.28,5-23.65-1.21s-14-15.78-10.26-21.34c2.82-4.24,8.41-4.47,13.63-2.92,1.18.35,3.55-6.8,13.14-.42,10.81,7.19,3.35,11.2,5.5,14C470.32,130.22,472.46,134.56,469.53,139Z"/>
        <ellipse class="cls-4" cx="449.24" cy="102.1" rx="6.73" ry="5.03" transform="translate(237.76 511.38) rotate(-75.48)"/>
        <ellipse class="cls-4" cx="464.4" cy="102.44" rx="6.73" ry="5.03" transform="matrix(0.25, -0.97, 0.97, 0.25, 248.79, 526.32)"/>
        <ellipse class="cls-4" cx="474.13" cy="110.66" rx="6.73" ry="5.03" transform="translate(29.84 309.79) rotate(-37.28)"/>
        <ellipse class="cls-4" cx="478.42" cy="121.5" rx="6.73" ry="5.03" transform="translate(24.15 314.6) rotate(-37.28)"/>
      </g>
      <text class="cls-5" transform="translate(0 351.79)">Curious <tspan class="cls-6" x="410.96" y="0">P</tspan><tspan x="481.29" y="0">ets</tspan></text>
    </g>
  </g>
</svg>
