<svg xmlns="http://www.w3.org/2000/svg" width="53.625" height="53.692" viewBox="0 0 53.625 53.692">
  <g id="paws" transform="matrix(0.848, -0.53, 0.53, 0.848, -6, 20.519)">
    <path id="Path_2" data-name="Path 2" d="M4.724.114C2.517.756.865,2.9.2,5.941A13.133,13.133,0,0,0,.31,11.072a7.865,7.865,0,0,0,3.642,5.055,3.038,3.038,0,0,0,1.978.413,3.069,3.069,0,0,0,2-.424c2.544-1.25,4.12-4.576,3.946-8.327-.174-3.565-1.6-6.25-3.935-7.359A3.5,3.5,0,0,0,6.169.006,5.366,5.366,0,0,0,4.724.114Z" transform="translate(11.646 0.027)" fill="#fff"/>
    <path id="Path_3" data-name="Path 3" d="M4.771.142A5.168,5.168,0,0,0,2.6,1.37C.13,3.609-.729,8.414.673,12.164a6.866,6.866,0,0,0,3.3,3.989,3.1,3.1,0,0,0,1.989.413,3.038,3.038,0,0,0,1.978-.413,8.011,8.011,0,0,0,3.7-5.24,13.493,13.493,0,0,0,.043-4.946C10.913,2.3,8.663-.032,5.913,0A5.12,5.12,0,0,0,4.771.142Z" transform="translate(26.828 0)" fill="#fff"/>
    <path id="Path_4" data-name="Path 4" d="M3.064.158A4.836,4.836,0,0,0,.249,3.713c-.8,3.1.413,7.577,2.609,9.642,2.707,2.522,6.153,1.391,7.164-2.348a11.721,11.721,0,0,0-.283-5.816A8.238,8.238,0,0,0,5.836.267,4.756,4.756,0,0,0,3.064.158Z" transform="translate(0 11.321)" fill="#fff"/>
    <path id="Path_5" data-name="Path 5" d="M4.687.193A5.654,5.654,0,0,0,2.447,1.834,10.325,10.325,0,0,0,.012,9.226a5.938,5.938,0,0,0,1.837,4.5,3.342,3.342,0,0,0,2.652.913A3.29,3.29,0,0,0,6.2,14.2a6.876,6.876,0,0,0,2.576-2.522A14.4,14.4,0,0,0,10.067,8.3a13.279,13.279,0,0,0-.022-4.5A5.371,5.371,0,0,0,7.535.312,4.2,4.2,0,0,0,4.687.193Z" transform="translate(40.098 11.309)" fill="#fff"/>
    <path id="Path_6" data-name="Path 6" d="M16.523.079a10.616,10.616,0,0,0-4.576,1.772c-.75.522-9.816,9.055-10.479,9.859A7.142,7.142,0,0,0,.13,14.645a7.61,7.61,0,0,0,3.935,8.044c2,.978,4.066.935,8.251-.217a17.463,17.463,0,0,1,6.794-.859,24.9,24.9,0,0,1,5.109.967,16.3,16.3,0,0,0,4.489.772c4.609-.043,8.044-5.066,6.533-9.555a5.986,5.986,0,0,0-1.6-2.6c-1.4-1.478-9.305-8.87-9.99-9.349A10.637,10.637,0,0,0,16.523.079Z" transform="translate(7.38 20.347)" fill="#fff"/>
  </g>
</svg>
